name analog
datacolumns 19
datarows 37
range 0.182 0.2
endheader
time	ground_force_vx	ground_force_vy	ground_force_vz	ground_force_px	ground_force_py	ground_force_pz	l_ground_force_vx	l_ground_force_vy	l_ground_force_vz	l_ground_force_px	l_ground_force_py	l_ground_force_pz	ground_torque_x	ground_torque_y	ground_torque_z	l_ground_torque_x	l_ground_torque_y	l_ground_torque_z
0.182	-0.0	-0.0	-0.0	0.9412965774536132	22.28260040283203	-335.3625183105469	3.070521354675293	-22.826305389404297	-328.531494140625	-0.0	-0.0	-0.0	-0.0	-0.0	-0.0	95357.734375	-21118.50390625	-1554.374755859375
0.1825	-0.0	-0.0	-0.0	0.9101064801216124	22.5189151763916	-336.1916809082031	3.178542375564575	-22.86584854125977	-327.8533935546875	-0.0	-0.0	-0.0	-0.0	-0.0	-0.0	94882.3515625	-21041.869140625	-1468.4759521484375
0.183	-0.0	-0.0	-0.0	0.8518545031547546	22.518478393554688	-337.3148193359375	3.0161666870117188	-22.119993209838867	-328.9609069824219	-0.0	-0.0	-0.0	-0.0	-0.0	-0.0	95058.0703125	-21321.55078125	-1559.2940673828125
0.1835	-0.0	-0.0	-0.0	1.3541048765182495	23.14950561523437	-335.5209350585937	2.887624740600586	-22.296720504760746	-330.9351806640625	-0.0	-0.0	-0.0	-0.0	-0.0	-0.0	96004.8359375	-21296.01953125	-1516.475830078125
0.184	-0.0	-0.0	-0.0	1.5004380941390991	23.22257423400879	-336.1947937011719	3.178004741668701	-21.75140380859375	-333.5357360839844	-0.0	-0.0	-0.0	-0.0	-0.0	-0.0	96403.859375	-21469.763671875	-1548.7347412109375
0.1845	-0.0	-0.0	-0.0	1.7436119318008425	23.18191146850586	-335.6171569824219	4.016310691833496	-21.382400512695312	-334.3633728027344	-0.0	-0.0	-0.0	-0.0	-0.0	-0.0	97372.8828125	-21380.908203125	-1477.642578125
0.185	-0.0	-0.0	-0.0	1.5330489873886108	23.29594612121582	-337.897216796875	4.024606704711914	-20.98056030273437	-338.3905334472656	-0.0	-0.0	-0.0	-0.0	-0.0	-0.0	97653.8125	-21389.748046875	-1396.6766357421875
0.1855	-0.0	-0.0	-0.0	1.5965855121612549	23.49131774902344	-336.705810546875	4.588767051696777	-20.80377197265625	-338.4866027832031	-0.0	-0.0	-0.0	-0.0	-0.0	-0.0	98022.203125	-21464.294921875	-1261.3939208984375
0.186	-0.0	-0.0	-0.0	1.468316674232483	23.241113662719727	-339.3103942871094	4.8549418449401855	-21.06865119934082	-338.7081604003906	-0.0	-0.0	-0.0	-0.0	-0.0	-0.0	98385.1015625	-21703.4453125	-1204.6121826171875
0.1865	-0.0	-0.0	-0.0	0.8680180311203003	23.43416404724121	-339.3670959472656	4.38732385635376	-21.3008975982666	-340.6770935058594	-0.0	-0.0	-0.0	-0.0	-0.0	-0.0	98597.390625	-21358.361328125	-1315.5692138671875
0.187	-0.0	-0.0	-0.0	0.8028945922851562	23.65386199951172	-341.7560119628906	4.435539245605469	-21.478702545166016	-341.6302490234375	-0.0	-0.0	-0.0	-0.0	-0.0	-0.0	98907.734375	-21636.4296875	-1396.5108642578125
0.1875	-0.0	-0.0	-0.0	0.8921051025390625	23.269636154174805	-341.9468688964844	3.9440340995788574	-21.42158889770508	-340.3567810058594	-0.0	-0.0	-0.0	-0.0	-0.0	-0.0	98957.1171875	-21304.083984375	-1661.4173583984375
0.188	-0.0	-0.0	-0.0	0.7853509783744812	23.19777107238769	-340.30145263671875	3.8006997108459473	-21.244815826416016	-341.9135437011719	-0.0	-0.0	-0.0	-0.0	-0.0	-0.0	98991.2734375	-21258.07421875	-1784.853515625
0.1885	-0.0	-0.0	-0.0	0.8028945922851562	22.936458587646484	-342.937744140625	3.3300161361694336	-21.4621696472168	-343.0282592773437	-0.0	-0.0	-0.0	-0.0	-0.0	-0.0	99123.3671875	-20981.650390625	-1798.881591796875
0.189	-0.0	-0.0	-0.0	1.0587291717529297	22.526235580444336	-342.2080078125	3.4597206115722656	-21.479406356811523	-342.8924560546875	-0.0	-0.0	-0.0	-0.0	-0.0	-0.0	99106.3828125	-20911.896484375	-1980.3582763671875
0.1895	-0.0	-0.0	-0.0	1.2726515531539917	22.460861206054688	-343.97509765625	3.152331829071045	-21.08526039123535	-343.4271850585937	-0.0	-0.0	-0.0	-0.0	-0.0	-0.0	99115.5546875	-21068.04296875	-2103.398681640625
0.19	-0.0	-0.0	-0.0	1.3381576538085938	21.771459579467773	-342.6351623535156	3.0811920166015625	-21.00298309326172	-342.9601135253906	-0.0	-0.0	-0.0	-0.0	-0.0	-0.0	98881.859375	-20781.37109375	-2144.857666015625
0.1905	-0.0	-0.0	-0.0	1.6477590799331665	21.65342140197754	-343.6231994628906	2.915538787841797	-21.256149291992188	-342.3316345214844	-0.0	-0.0	-0.0	-0.0	-0.0	-0.0	98912.9375	-20461.142578125	-2176.70654296875
0.191	-0.0	-0.0	-0.0	2.361588954925537	21.1424560546875	-341.637939453125	2.998169183731079	-20.561033248901367	-342.3541259765625	-0.0	-0.0	-0.0	-0.0	-0.0	-0.0	98689.6953125	-20223.87890625	-2275.184814453125
0.1915	-0.0	-0.0	-0.0	2.6058523654937744	19.993412017822266	-339.7215576171875	2.8622567653656006	-20.755596160888672	-341.9119873046875	-0.0	-0.0	-0.0	-0.0	-0.0	-0.0	98440.0546875	-20029.654296875	-2346.6953125
0.192	-0.0	-0.0	-0.0	2.610527276992798	20.03093910217285	-339.6663818359375	2.596059799194336	-20.4256534576416	-341.9840087890625	-0.0	-0.0	-0.0	-0.0	-0.0	-0.0	98320.75	-19722.66015625	-2552.75146484375
0.1925	-0.0	-0.0	-0.0	2.4554266929626465	19.51528549194336	-340.3729248046875	2.633053779602051	-20.37901496887207	-342.6827087402344	-0.0	-0.0	-0.0	-0.0	-0.0	-0.0	98839.46875	-19891.7578125	-2637.20947265625
0.193	-0.0	-0.0	-0.0	2.1450929641723637	18.9999942779541	-337.6400146484375	2.0916638374328613	-20.38369369506836	-342.958740234375	-0.0	-0.0	-0.0	-0.0	-0.0	-0.0	99086.890625	-19591.08984375	-2740.58544921875
0.1935	-0.0	-0.0	-0.0	1.3846375942230225	18.845460891723636	-336.6725158691406	2.390840768814087	-20.31831932067871	-344.1890563964844	-0.0	-0.0	-0.0	-0.0	-0.0	-0.0	99532.5703125	-19540.822265625	-2805.98486328125
0.194	-0.0	-0.0	-0.0	1.202551245689392	18.186180114746094	-337.7177124023437	2.129058837890625	-20.4716739654541	-345.477294921875	-0.0	-0.0	-0.0	-0.0	-0.0	-0.0	99465.015625	-19585.564453125	-2937.627685546875
0.1945	-0.0	-0.0	-0.0	0.8260495066642761	18.070337295532227	-336.5805053710937	2.75003433227539	-20.25274085998535	-346.1917419433594	-0.0	-0.0	-0.0	-0.0	-0.0	-0.0	99390.296875	-19419.583984375	-2819.9306640625
0.195	-0.0	-0.0	-0.0	0.8690230250358582	18.225608825683597	-337.9808654785156	2.668768882751465	-20.24867248535156	-346.4640197753906	-0.0	-0.0	-0.0	-0.0	-0.0	-0.0	99651.1875	-19439.353515625	-2785.182373046875
0.1955	-0.0	-0.0	-0.0	0.1553984880447387	17.45231056213379	-338.0957336425781	2.861794233322144	-20.490631103515625	-347.4195861816406	-0.0	-0.0	-0.0	-0.0	-0.0	-0.0	99995.203125	-19195.86328125	-3043.150634765625
0.196	-0.0	-0.0	-0.0	-0.6474310159683228	18.00434112548828	-337.99322509765625	2.4839019775390625	-20.79815101623535	-348.4406433105469	-0.0	-0.0	-0.0	-0.0	-0.0	-0.0	99966.28125	-19218.744140625	-3036.93408203125
0.1965	-0.0	-0.0	-0.0	-1.1368296146392822	17.42620086669922	-338.981201171875	1.4682672023773191	-20.77842903137207	-349.92828369140625	-0.0	-0.0	-0.0	-0.0	-0.0	-0.0	100272.2109375	-19039.8203125	-3289.27294921875
0.197	-0.0	-0.0	-0.0	-1.6264567375183103	17.583694458007812	-339.8409423828125	1.1504499912261963	-20.843917846679688	-351.50567626953125	-0.0	-0.0	-0.0	-0.0	-0.0	-0.0	100545.390625	-18869.423828125	-3466.58642578125
0.1975	-0.0	-0.0	-0.0	-1.6760025024414062	17.44680404663086	-340.54815673828125	0.7552918791770935	-21.21990776062012	-352.12432861328125	-0.0	-0.0	-0.0	-0.0	-0.0	-0.0	101139.9140625	-18932.6953125	-3659.482421875
0.198	-0.0	-0.0	-0.0	-2.210966110229492	17.471275329589844	-341.0818176269531	0.1569916754961013	-21.61847305297852	-353.421875	-0.0	-0.0	-0.0	-0.0	-0.0	-0.0	101527.0390625	-19083.458984375	-3817.59814453125
0.1985	-0.0	-0.0	-0.0	-2.410233497619629	17.759618759155273	-339.2262878417969	-0.3732350468635559	-21.507408142089844	-353.96734619140625	-0.0	-0.0	-0.0	-0.0	-0.0	-0.0	101670.3515625	-18720.361328125	-3891.7177734375
0.199	-0.0	-0.0	-0.0	-3.0331573486328125	17.404281616210938	-337.81414794921875	0.1302558332681656	-22.033462524414062	-355.9637756347656	-0.0	-0.0	-0.0	-0.0	-0.0	-0.0	101767.0390625	-18835.6015625	-3892.11962890625
0.1995	-0.0	-0.0	-0.0	-3.5222859382629395	17.024925231933594	-339.1380310058594	-0.4451898634433746	-21.727134704589844	-358.4833679199219	-0.0	-0.0	-0.0	-0.0	-0.0	-0.0	102197.3359375	-18739.076171875	-4121.037109375
0.2	-0.0	-0.0	-0.0	-3.2123374938964844	17.33548355102539	-338.7826232910156	-1.0856740474700928	-22.10284423828125	-359.27703857421875	-0.0	-0.0	-0.0	-0.0	-0.0	-0.0	102303.6875	-18700.234375	-4271.39794921875
